<?xml version="1.0" encoding="UTF-8" standalone="no"?>
<!-- Created with Inkscape (http://www.inkscape.org/) -->

<svg
   width="3.9997561mm"
   height="5.2503257mm"
   viewBox="0 0 3.9997561 5.2503257"
   version="1.1"
   id="svg1"
   xmlns="http://www.w3.org/2000/svg"
   xmlns:svg="http://www.w3.org/2000/svg">
  <defs
     id="defs1" />
  <g
     id="layer1">
    <path
       id="rect14"
       style="opacity:1;fill:'currentColor';fill-opacity:1;stroke:none;stroke-width:1;stroke-linecap:butt;stroke-linejoin:miter;stroke-dasharray:none;stroke-opacity:1"
       d="M 1.999878,0 A 1.5,1.5 0 0 0 0.50022786,1.5001668 V 2.2505086 H 0.25011393 C 0.11161393,2.2505086 0,2.3621226 0,2.5006226 v 2.499589 c 0,0.1385 0.11161393,0.2501139 0.25011393,0.2501139 H 3.7501587 c 0.1385,0 0.2495973,-0.1116139 0.2495973,-0.2501139 v -2.499589 c 0,-0.1385 -0.1110972,-0.250114 -0.2495973,-0.250114 H 3.5000449 V 1.5001668 A 1.5,1.5 0 0 0 1.999878,0 Z m 0,0.50022789 A 1,1 0 0 1 2.999817,1.5001668 h 5.168e-4 V 2.2505086 H 1.0004558 V 1.5001668 H 0.99993895 A 1,1 0 0 1 1.999878,0.50022789 Z" />
  </g>
</svg>
